<svg width="1528" height="297" viewBox="0 0 1528 297" fill="none" xmlns="http://www.w3.org/2000/svg">
<path d="M0 15C0 6.71573 6.71573 0 15 0H37V297H15C6.71573 297 0 290.284 0 282V15Z" fill="#FAAC14"/>
<path d="M0 15C0 6.71573 6.71573 0 15 0H37V297H15C6.71573 297 0 290.284 0 282V15Z" fill="black" fill-opacity="0.2"/>
<path d="M37 0H1528V297H37V0Z" fill="#F0F0F0"/>
<path d="M95.2852 49.4062H104.83C106.787 49.4062 108.469 49.6992 109.875 50.2852C111.293 50.8711 112.383 51.7383 113.145 52.8867C113.906 54.0352 114.287 55.4473 114.287 57.123C114.287 58.4941 114.053 59.6719 113.584 60.6562C113.127 61.6289 112.477 62.4434 111.633 63.0996C110.801 63.7441 109.822 64.2598 108.697 64.6465L107.027 65.5254H98.7305L98.6953 61.4121H104.865C105.791 61.4121 106.559 61.248 107.168 60.9199C107.777 60.5918 108.234 60.1348 108.539 59.5488C108.855 58.9629 109.014 58.2832 109.014 57.5098C109.014 56.6895 108.861 55.9805 108.557 55.3828C108.252 54.7852 107.789 54.3281 107.168 54.0117C106.547 53.6953 105.768 53.5371 104.83 53.5371H100.559V75H95.2852V49.4062ZM109.594 75L103.758 63.5918L109.33 63.5566L115.236 74.7539V75H109.594ZM117.223 65.6836V65.3145C117.223 63.9199 117.422 62.6367 117.82 61.4648C118.219 60.2812 118.799 59.2559 119.561 58.3887C120.322 57.5215 121.26 56.8477 122.373 56.3672C123.486 55.875 124.764 55.6289 126.205 55.6289C127.646 55.6289 128.93 55.875 130.055 56.3672C131.18 56.8477 132.123 57.5215 132.885 58.3887C133.658 59.2559 134.244 60.2812 134.643 61.4648C135.041 62.6367 135.24 63.9199 135.24 65.3145V65.6836C135.24 67.0664 135.041 68.3496 134.643 69.5332C134.244 70.7051 133.658 71.7305 132.885 72.6094C132.123 73.4766 131.186 74.1504 130.072 74.6309C128.959 75.1113 127.682 75.3516 126.24 75.3516C124.799 75.3516 123.516 75.1113 122.391 74.6309C121.277 74.1504 120.334 73.4766 119.561 72.6094C118.799 71.7305 118.219 70.7051 117.82 69.5332C117.422 68.3496 117.223 67.0664 117.223 65.6836ZM122.285 65.3145V65.6836C122.285 66.4805 122.355 67.2246 122.496 67.916C122.637 68.6074 122.859 69.2168 123.164 69.7441C123.48 70.2598 123.891 70.6641 124.395 70.957C124.898 71.25 125.514 71.3965 126.24 71.3965C126.943 71.3965 127.547 71.25 128.051 70.957C128.555 70.6641 128.959 70.2598 129.264 69.7441C129.568 69.2168 129.791 68.6074 129.932 67.916C130.084 67.2246 130.16 66.4805 130.16 65.6836V65.3145C130.16 64.541 130.084 63.8145 129.932 63.1348C129.791 62.4434 129.562 61.834 129.246 61.3066C128.941 60.7676 128.537 60.3457 128.033 60.041C127.529 59.7363 126.92 59.584 126.205 59.584C125.49 59.584 124.881 59.7363 124.377 60.041C123.885 60.3457 123.48 60.7676 123.164 61.3066C122.859 61.834 122.637 62.4434 122.496 63.1348C122.355 63.8145 122.285 64.541 122.285 65.3145ZM143.309 60.041V75H138.246V55.9805H142.992L143.309 60.041ZM142.57 64.8223H141.199C141.199 63.416 141.381 62.1504 141.744 61.0254C142.107 59.8887 142.617 58.9219 143.273 58.125C143.93 57.3164 144.709 56.7012 145.611 56.2793C146.525 55.8457 147.545 55.6289 148.67 55.6289C149.561 55.6289 150.375 55.7578 151.113 56.0156C151.852 56.2734 152.484 56.6836 153.012 57.2461C153.551 57.8086 153.961 58.5527 154.242 59.4785C154.535 60.4043 154.682 61.5352 154.682 62.8711V75H149.584V62.8535C149.584 62.0098 149.467 61.3535 149.232 60.8848C148.998 60.416 148.652 60.0879 148.195 59.9004C147.75 59.7012 147.199 59.6016 146.543 59.6016C145.863 59.6016 145.271 59.7363 144.768 60.0059C144.275 60.2754 143.865 60.6504 143.537 61.1309C143.221 61.5996 142.98 62.1504 142.816 62.7832C142.652 63.416 142.57 64.0957 142.57 64.8223ZM164.174 72.8555L169.219 55.9805H174.65L167.004 77.8652C166.84 78.3457 166.617 78.8613 166.336 79.4121C166.066 79.9629 165.697 80.4844 165.229 80.9766C164.771 81.4805 164.191 81.8906 163.488 82.207C162.797 82.5234 161.947 82.6816 160.939 82.6816C160.459 82.6816 160.066 82.6523 159.762 82.5938C159.457 82.5352 159.094 82.4531 158.672 82.3477V78.6387C158.801 78.6387 158.936 78.6387 159.076 78.6387C159.217 78.6504 159.352 78.6562 159.48 78.6562C160.148 78.6562 160.693 78.5801 161.115 78.4277C161.537 78.2754 161.877 78.041 162.135 77.7246C162.393 77.4199 162.598 77.0215 162.75 76.5293L164.174 72.8555ZM162.064 55.9805L166.195 69.7617L166.916 75.123L163.471 75.4922L156.633 55.9805H162.064ZM196.359 53.7832L189.398 75H183.791L193.301 49.4062H196.869L196.359 53.7832ZM202.143 75L195.164 53.7832L194.602 49.4062H198.205L207.768 75H202.143ZM201.826 65.4727V69.6035H188.309V65.4727H201.826ZM215.168 48V75H210.088V48H215.168ZM231.041 49.4062H235.506L242.08 68.1973L248.654 49.4062H253.119L243.873 75H240.287L231.041 49.4062ZM228.633 49.4062H233.08L233.889 67.7227V75H228.633V49.4062ZM251.08 49.4062H255.545V75H250.271V67.7227L251.08 49.4062ZM270.891 53.7832L263.93 75H258.322L267.832 49.4062H271.4L270.891 53.7832ZM276.674 75L269.695 53.7832L269.133 49.4062H272.736L282.299 75H276.674ZM276.357 65.4727V69.6035H262.84V65.4727H276.357ZM289.189 70.0781L293.145 55.9805H296.361L295.324 61.5176L291.369 75H288.68L289.189 70.0781ZM287.186 55.9805L290.016 70.0605L290.279 75H287.115L282.299 55.9805H287.186ZM299.982 69.832L302.742 55.9805H307.646L302.83 75H299.684L299.982 69.832ZM296.801 55.9805L300.738 69.9727L301.283 75H298.576L294.621 61.5352L293.619 55.9805H296.801ZM315.539 48V75H310.459V48H315.539ZM329.988 70.7109V62.2383C329.988 61.6289 329.889 61.1074 329.689 60.6738C329.49 60.2285 329.18 59.8828 328.758 59.6367C328.348 59.3906 327.814 59.2676 327.158 59.2676C326.596 59.2676 326.109 59.3672 325.699 59.5664C325.289 59.7539 324.973 60.0293 324.75 60.3926C324.527 60.7441 324.416 61.1602 324.416 61.6406H319.354C319.354 60.832 319.541 60.0645 319.916 59.3379C320.291 58.6113 320.836 57.9727 321.551 57.4219C322.266 56.8594 323.115 56.4199 324.1 56.1035C325.096 55.7871 326.209 55.6289 327.439 55.6289C328.916 55.6289 330.229 55.875 331.377 56.3672C332.525 56.8594 333.428 57.5977 334.084 58.582C334.752 59.5664 335.086 60.7969 335.086 62.2734V70.4121C335.086 71.4551 335.15 72.3105 335.279 72.9785C335.408 73.6348 335.596 74.209 335.842 74.7012V75H330.727C330.48 74.4844 330.293 73.8398 330.164 73.0664C330.047 72.2812 329.988 71.4961 329.988 70.7109ZM330.656 63.416L330.691 66.2812H327.861C327.193 66.2812 326.613 66.3574 326.121 66.5098C325.629 66.6621 325.225 66.8789 324.908 67.1602C324.592 67.4297 324.357 67.7461 324.205 68.1094C324.064 68.4727 323.994 68.8711 323.994 69.3047C323.994 69.7383 324.094 70.1309 324.293 70.4824C324.492 70.8223 324.779 71.0918 325.154 71.291C325.529 71.4785 325.969 71.5723 326.473 71.5723C327.234 71.5723 327.896 71.4199 328.459 71.1152C329.021 70.8105 329.455 70.4355 329.76 69.9902C330.076 69.5449 330.24 69.123 330.252 68.7246L331.588 70.8691C331.4 71.3496 331.143 71.8477 330.814 72.3633C330.498 72.8789 330.094 73.3652 329.602 73.8223C329.109 74.2676 328.518 74.6367 327.826 74.9297C327.135 75.2109 326.314 75.3516 325.365 75.3516C324.158 75.3516 323.062 75.1113 322.078 74.6309C321.105 74.1387 320.332 73.4648 319.758 72.6094C319.195 71.7422 318.914 70.7578 318.914 69.6562C318.914 68.6602 319.102 67.7754 319.477 67.002C319.852 66.2285 320.402 65.5781 321.129 65.0508C321.867 64.5117 322.787 64.1074 323.889 63.8379C324.99 63.5566 326.268 63.416 327.721 63.416H330.656Z" fill="#888888"/>
<path d="M122.859 115.992V123.375H102.434V115.992H122.859ZM105.633 100.188V140H96.0352V100.188H105.633ZM129.312 100.188V140H119.742V100.188H129.312ZM133.824 125.508V124.934C133.824 122.764 134.134 120.768 134.754 118.945C135.374 117.104 136.285 115.509 137.488 114.16C138.691 112.811 140.177 111.763 141.945 111.016C143.714 110.25 145.755 109.867 148.07 109.867C150.404 109.867 152.454 110.25 154.223 111.016C156.009 111.763 157.504 112.811 158.707 114.16C159.91 115.509 160.822 117.104 161.441 118.945C162.061 120.768 162.371 122.764 162.371 124.934V125.508C162.371 127.659 162.061 129.655 161.441 131.496C160.822 133.319 159.91 134.914 158.707 136.281C157.504 137.63 156.018 138.678 154.25 139.426C152.482 140.173 150.44 140.547 148.125 140.547C145.81 140.547 143.759 140.173 141.973 139.426C140.186 138.678 138.691 137.63 137.488 136.281C136.285 134.914 135.374 133.319 134.754 131.496C134.134 129.655 133.824 127.659 133.824 125.508ZM143.039 124.934V125.508C143.039 126.62 143.121 127.659 143.285 128.625C143.449 129.591 143.723 130.439 144.105 131.168C144.488 131.879 145.008 132.435 145.664 132.836C146.32 133.237 147.141 133.438 148.125 133.438C149.091 133.438 149.893 133.237 150.531 132.836C151.188 132.435 151.707 131.879 152.09 131.168C152.473 130.439 152.746 129.591 152.91 128.625C153.074 127.659 153.156 126.62 153.156 125.508V124.934C153.156 123.858 153.074 122.846 152.91 121.898C152.746 120.932 152.473 120.085 152.09 119.355C151.707 118.608 151.188 118.025 150.531 117.605C149.875 117.186 149.055 116.977 148.07 116.977C147.104 116.977 146.293 117.186 145.637 117.605C144.999 118.025 144.488 118.608 144.105 119.355C143.723 120.085 143.449 120.932 143.285 121.898C143.121 122.846 143.039 123.858 143.039 124.934ZM175.77 116.676V140H166.555V110.414H175.195L175.77 116.676ZM174.648 124.195L172.543 124.25C172.543 122.172 172.789 120.258 173.281 118.508C173.773 116.758 174.503 115.236 175.469 113.941C176.435 112.647 177.62 111.645 179.023 110.934C180.445 110.223 182.086 109.867 183.945 109.867C185.24 109.867 186.415 110.068 187.473 110.469C188.53 110.852 189.441 111.462 190.207 112.301C190.973 113.121 191.556 114.197 191.957 115.527C192.376 116.84 192.586 118.417 192.586 120.258V140H183.371V121.434C183.371 120.176 183.225 119.228 182.934 118.59C182.66 117.952 182.259 117.523 181.73 117.305C181.202 117.086 180.555 116.977 179.789 116.977C178.987 116.977 178.267 117.159 177.629 117.523C176.991 117.888 176.444 118.398 175.988 119.055C175.551 119.693 175.214 120.449 174.977 121.324C174.758 122.199 174.648 123.156 174.648 124.195ZM191.547 124.195L188.977 124.25C188.977 122.172 189.204 120.258 189.66 118.508C190.134 116.758 190.836 115.236 191.766 113.941C192.714 112.647 193.889 111.645 195.293 110.934C196.697 110.223 198.328 109.867 200.188 109.867C201.536 109.867 202.776 110.068 203.906 110.469C205.036 110.87 206.012 111.517 206.832 112.41C207.652 113.303 208.29 114.488 208.746 115.965C209.202 117.423 209.43 119.228 209.43 121.379V140H200.188V121.379C200.188 120.158 200.042 119.237 199.75 118.617C199.477 117.979 199.076 117.551 198.547 117.332C198.018 117.095 197.389 116.977 196.66 116.977C195.785 116.977 195.029 117.159 194.391 117.523C193.753 117.888 193.215 118.398 192.777 119.055C192.358 119.693 192.048 120.449 191.848 121.324C191.647 122.199 191.547 123.156 191.547 124.195ZM229.035 140.547C226.629 140.547 224.478 140.173 222.582 139.426C220.686 138.66 219.082 137.612 217.77 136.281C216.475 134.951 215.482 133.419 214.789 131.688C214.115 129.956 213.777 128.124 213.777 126.191V125.152C213.777 122.983 214.078 120.978 214.68 119.137C215.281 117.277 216.174 115.655 217.359 114.27C218.544 112.884 220.03 111.809 221.816 111.043C223.603 110.259 225.681 109.867 228.051 109.867C230.147 109.867 232.025 110.204 233.684 110.879C235.342 111.553 236.746 112.52 237.895 113.777C239.061 115.035 239.945 116.557 240.547 118.344C241.167 120.13 241.477 122.135 241.477 124.359V128.105H217.305V122.336H232.48V121.625C232.499 120.641 232.326 119.802 231.961 119.109C231.615 118.417 231.104 117.888 230.43 117.523C229.755 117.159 228.935 116.977 227.969 116.977C226.966 116.977 226.137 117.195 225.48 117.633C224.842 118.07 224.341 118.672 223.977 119.438C223.63 120.185 223.384 121.051 223.238 122.035C223.092 123.02 223.02 124.059 223.02 125.152V126.191C223.02 127.285 223.165 128.279 223.457 129.172C223.767 130.065 224.204 130.831 224.77 131.469C225.353 132.089 226.046 132.572 226.848 132.918C227.668 133.264 228.598 133.438 229.637 133.438C230.895 133.438 232.134 133.201 233.355 132.727C234.577 132.253 235.625 131.469 236.5 130.375L240.684 135.352C240.082 136.208 239.225 137.038 238.113 137.84C237.02 138.642 235.707 139.298 234.176 139.809C232.645 140.301 230.931 140.547 229.035 140.547ZM272.539 140H263.707L263.762 132.617H272.539C274.362 132.617 275.902 132.18 277.16 131.305C278.436 130.43 279.402 129.126 280.059 127.395C280.733 125.645 281.07 123.493 281.07 120.941V119.219C281.07 117.305 280.879 115.628 280.496 114.188C280.132 112.729 279.585 111.517 278.855 110.551C278.126 109.566 277.215 108.828 276.121 108.336C275.046 107.844 273.806 107.598 272.402 107.598H263.543V100.188H272.402C275.1 100.188 277.57 100.652 279.812 101.582C282.073 102.493 284.023 103.806 285.664 105.52C287.323 107.215 288.599 109.229 289.492 111.562C290.404 113.878 290.859 116.448 290.859 119.273V120.941C290.859 123.749 290.404 126.319 289.492 128.652C288.599 130.986 287.332 133 285.691 134.695C284.051 136.391 282.109 137.703 279.867 138.633C277.643 139.544 275.201 140 272.539 140ZM269.203 100.188V140H259.605V100.188H269.203ZM309.754 140.547C307.348 140.547 305.197 140.173 303.301 139.426C301.405 138.66 299.801 137.612 298.488 136.281C297.194 134.951 296.201 133.419 295.508 131.688C294.833 129.956 294.496 128.124 294.496 126.191V125.152C294.496 122.983 294.797 120.978 295.398 119.137C296 117.277 296.893 115.655 298.078 114.27C299.263 112.884 300.749 111.809 302.535 111.043C304.322 110.259 306.4 109.867 308.77 109.867C310.866 109.867 312.743 110.204 314.402 110.879C316.061 111.553 317.465 112.52 318.613 113.777C319.78 115.035 320.664 116.557 321.266 118.344C321.885 120.13 322.195 122.135 322.195 124.359V128.105H298.023V122.336H313.199V121.625C313.217 120.641 313.044 119.802 312.68 119.109C312.333 118.417 311.823 117.888 311.148 117.523C310.474 117.159 309.654 116.977 308.688 116.977C307.685 116.977 306.855 117.195 306.199 117.633C305.561 118.07 305.06 118.672 304.695 119.438C304.349 120.185 304.103 121.051 303.957 122.035C303.811 123.02 303.738 124.059 303.738 125.152V126.191C303.738 127.285 303.884 128.279 304.176 129.172C304.486 130.065 304.923 130.831 305.488 131.469C306.072 132.089 306.764 132.572 307.566 132.918C308.387 133.264 309.316 133.438 310.355 133.438C311.613 133.438 312.853 133.201 314.074 132.727C315.296 132.253 316.344 131.469 317.219 130.375L321.402 135.352C320.801 136.208 319.944 137.038 318.832 137.84C317.738 138.642 316.426 139.298 314.895 139.809C313.363 140.301 311.65 140.547 309.754 140.547ZM338.438 133.438C339.294 133.438 340.023 133.283 340.625 132.973C341.245 132.645 341.71 132.189 342.02 131.605C342.348 131.004 342.503 130.284 342.484 129.445H351.152C351.171 131.669 350.624 133.62 349.512 135.297C348.418 136.956 346.923 138.25 345.027 139.18C343.15 140.091 341.026 140.547 338.656 140.547C336.341 140.547 334.318 140.173 332.586 139.426C330.854 138.66 329.405 137.603 328.238 136.254C327.09 134.887 326.224 133.292 325.641 131.469C325.076 129.646 324.793 127.668 324.793 125.535V124.906C324.793 122.773 325.076 120.796 325.641 118.973C326.224 117.132 327.09 115.536 328.238 114.188C329.405 112.82 330.845 111.763 332.559 111.016C334.29 110.25 336.305 109.867 338.602 109.867C341.062 109.867 343.232 110.332 345.109 111.262C347.005 112.191 348.491 113.54 349.566 115.309C350.642 117.077 351.171 119.219 351.152 121.734H342.484C342.503 120.841 342.366 120.039 342.074 119.328C341.783 118.617 341.327 118.052 340.707 117.633C340.105 117.195 339.331 116.977 338.383 116.977C337.435 116.977 336.669 117.186 336.086 117.605C335.503 118.025 335.056 118.608 334.746 119.355C334.454 120.085 334.254 120.923 334.145 121.871C334.053 122.819 334.008 123.831 334.008 124.906V125.535C334.008 126.629 334.053 127.659 334.145 128.625C334.254 129.573 334.464 130.411 334.773 131.141C335.083 131.852 335.53 132.417 336.113 132.836C336.697 133.237 337.471 133.438 338.438 133.438ZM353.941 125.508V124.934C353.941 122.764 354.251 120.768 354.871 118.945C355.491 117.104 356.402 115.509 357.605 114.16C358.809 112.811 360.294 111.763 362.062 111.016C363.831 110.25 365.872 109.867 368.188 109.867C370.521 109.867 372.572 110.25 374.34 111.016C376.126 111.763 377.621 112.811 378.824 114.16C380.027 115.509 380.939 117.104 381.559 118.945C382.178 120.768 382.488 122.764 382.488 124.934V125.508C382.488 127.659 382.178 129.655 381.559 131.496C380.939 133.319 380.027 134.914 378.824 136.281C377.621 137.63 376.135 138.678 374.367 139.426C372.599 140.173 370.557 140.547 368.242 140.547C365.927 140.547 363.876 140.173 362.09 139.426C360.303 138.678 358.809 137.63 357.605 136.281C356.402 134.914 355.491 133.319 354.871 131.496C354.251 129.655 353.941 127.659 353.941 125.508ZM363.156 124.934V125.508C363.156 126.62 363.238 127.659 363.402 128.625C363.566 129.591 363.84 130.439 364.223 131.168C364.605 131.879 365.125 132.435 365.781 132.836C366.438 133.237 367.258 133.438 368.242 133.438C369.208 133.438 370.01 133.237 370.648 132.836C371.305 132.435 371.824 131.879 372.207 131.168C372.59 130.439 372.863 129.591 373.027 128.625C373.191 127.659 373.273 126.62 373.273 125.508V124.934C373.273 123.858 373.191 122.846 373.027 121.898C372.863 120.932 372.59 120.085 372.207 119.355C371.824 118.608 371.305 118.025 370.648 117.605C369.992 117.186 369.172 116.977 368.188 116.977C367.221 116.977 366.41 117.186 365.754 117.605C365.116 118.025 364.605 118.608 364.223 119.355C363.84 120.085 363.566 120.932 363.402 121.898C363.238 122.846 363.156 123.858 363.156 124.934ZM395.887 117.742V140H386.672V110.414H395.285L395.887 117.742ZM404.637 110.195L404.473 118.754C404.108 118.717 403.616 118.672 402.996 118.617C402.376 118.562 401.857 118.535 401.438 118.535C400.362 118.535 399.432 118.663 398.648 118.918C397.883 119.155 397.245 119.52 396.734 120.012C396.242 120.486 395.878 121.087 395.641 121.816C395.422 122.546 395.322 123.393 395.34 124.359L393.672 123.266C393.672 121.279 393.863 119.474 394.246 117.852C394.647 116.211 395.212 114.798 395.941 113.613C396.671 112.41 397.555 111.49 398.594 110.852C399.633 110.195 400.799 109.867 402.094 109.867C402.549 109.867 402.996 109.895 403.434 109.949C403.889 110.004 404.29 110.086 404.637 110.195ZM437.121 132.562V120.367C437.121 119.529 437.003 118.809 436.766 118.207C436.529 117.605 436.155 117.141 435.645 116.812C435.134 116.466 434.451 116.293 433.594 116.293C432.901 116.293 432.309 116.411 431.816 116.648C431.324 116.885 430.951 117.241 430.695 117.715C430.44 118.189 430.312 118.79 430.312 119.52H421.098C421.098 118.152 421.398 116.885 422 115.719C422.62 114.534 423.495 113.504 424.625 112.629C425.773 111.754 427.141 111.079 428.727 110.605C430.331 110.113 432.117 109.867 434.086 109.867C436.438 109.867 438.534 110.259 440.375 111.043C442.234 111.827 443.702 113.003 444.777 114.57C445.853 116.12 446.391 118.07 446.391 120.422V132.535C446.391 134.467 446.5 135.935 446.719 136.938C446.938 137.922 447.247 138.788 447.648 139.535V140H438.406C437.969 139.089 437.641 137.977 437.422 136.664C437.221 135.333 437.121 133.966 437.121 132.562ZM438.242 121.926L438.297 126.848H434.223C433.366 126.848 432.637 126.966 432.035 127.203C431.452 127.44 430.978 127.768 430.613 128.188C430.267 128.589 430.012 129.044 429.848 129.555C429.702 130.065 429.629 130.603 429.629 131.168C429.629 131.715 429.757 132.207 430.012 132.645C430.285 133.064 430.65 133.392 431.105 133.629C431.561 133.866 432.072 133.984 432.637 133.984C433.658 133.984 434.523 133.793 435.234 133.41C435.964 133.009 436.52 132.526 436.902 131.961C437.285 131.396 437.477 130.867 437.477 130.375L439.5 134.148C439.135 134.878 438.716 135.616 438.242 136.363C437.786 137.111 437.212 137.803 436.52 138.441C435.845 139.061 435.016 139.572 434.031 139.973C433.047 140.355 431.853 140.547 430.449 140.547C428.626 140.547 426.949 140.173 425.418 139.426C423.905 138.678 422.693 137.639 421.781 136.309C420.87 134.96 420.414 133.41 420.414 131.66C420.414 130.129 420.688 128.762 421.234 127.559C421.799 126.355 422.647 125.335 423.777 124.496C424.908 123.658 426.348 123.02 428.098 122.582C429.848 122.145 431.908 121.926 434.277 121.926H438.242ZM460.555 116.73V140H451.34V110.414H459.98L460.555 116.73ZM459.461 124.195L457.301 124.25C457.301 121.99 457.574 119.975 458.121 118.207C458.668 116.421 459.443 114.908 460.445 113.668C461.448 112.428 462.642 111.49 464.027 110.852C465.431 110.195 466.99 109.867 468.703 109.867C470.07 109.867 471.319 110.068 472.449 110.469C473.598 110.87 474.582 111.517 475.402 112.41C476.241 113.303 476.879 114.488 477.316 115.965C477.772 117.423 478 119.228 478 121.379V140H468.73V121.352C468.73 120.167 468.566 119.264 468.238 118.645C467.91 118.007 467.436 117.569 466.816 117.332C466.197 117.095 465.44 116.977 464.547 116.977C463.599 116.977 462.797 117.159 462.141 117.523C461.484 117.888 460.956 118.398 460.555 119.055C460.172 119.693 459.889 120.449 459.707 121.324C459.543 122.199 459.461 123.156 459.461 124.195ZM500.121 133.219V98H509.391V140H501.078L500.121 133.219ZM481.965 125.562V124.988C481.965 122.746 482.211 120.704 482.703 118.863C483.195 117.004 483.924 115.409 484.891 114.078C485.857 112.729 487.06 111.69 488.5 110.961C489.94 110.232 491.599 109.867 493.477 109.867C495.154 109.867 496.621 110.259 497.879 111.043C499.137 111.809 500.212 112.884 501.105 114.27C501.999 115.655 502.728 117.277 503.293 119.137C503.858 120.978 504.286 122.965 504.578 125.098V125.781C504.286 127.786 503.858 129.682 503.293 131.469C502.728 133.237 501.999 134.805 501.105 136.172C500.212 137.539 499.128 138.615 497.852 139.398C496.594 140.164 495.117 140.547 493.422 140.547C491.544 140.547 489.885 140.173 488.445 139.426C487.023 138.678 485.829 137.63 484.863 136.281C483.915 134.932 483.195 133.346 482.703 131.523C482.211 129.701 481.965 127.714 481.965 125.562ZM491.18 124.988V125.562C491.18 126.674 491.253 127.704 491.398 128.652C491.544 129.6 491.79 130.439 492.137 131.168C492.501 131.879 492.975 132.435 493.559 132.836C494.16 133.237 494.898 133.438 495.773 133.438C496.958 133.438 497.934 133.155 498.699 132.59C499.483 132.025 500.057 131.223 500.422 130.184C500.805 129.145 500.969 127.923 500.914 126.52V124.359C500.951 123.156 500.868 122.099 500.668 121.188C500.467 120.258 500.148 119.483 499.711 118.863C499.292 118.243 498.754 117.779 498.098 117.469C497.46 117.141 496.703 116.977 495.828 116.977C494.971 116.977 494.242 117.177 493.641 117.578C493.057 117.979 492.583 118.544 492.219 119.273C491.854 119.984 491.59 120.832 491.426 121.816C491.262 122.783 491.18 123.84 491.18 124.988ZM539.195 100.188V140H529.625V100.188H539.195ZM554.562 116.73V140H545.348V110.414H553.988L554.562 116.73ZM553.469 124.195L551.309 124.25C551.309 121.99 551.582 119.975 552.129 118.207C552.676 116.421 553.451 114.908 554.453 113.668C555.456 112.428 556.65 111.49 558.035 110.852C559.439 110.195 560.997 109.867 562.711 109.867C564.078 109.867 565.327 110.068 566.457 110.469C567.605 110.87 568.59 111.517 569.41 112.41C570.249 113.303 570.887 114.488 571.324 115.965C571.78 117.423 572.008 119.228 572.008 121.379V140H562.738V121.352C562.738 120.167 562.574 119.264 562.246 118.645C561.918 118.007 561.444 117.569 560.824 117.332C560.204 117.095 559.448 116.977 558.555 116.977C557.607 116.977 556.805 117.159 556.148 117.523C555.492 117.888 554.964 118.398 554.562 119.055C554.18 119.693 553.897 120.449 553.715 121.324C553.551 122.199 553.469 123.156 553.469 124.195ZM592.707 110.414V116.812H574.879V110.414H592.707ZM578.625 103.059H587.84V130.348C587.84 131.132 587.931 131.742 588.113 132.18C588.296 132.599 588.605 132.9 589.043 133.082C589.499 133.246 590.1 133.328 590.848 133.328C591.376 133.328 591.814 133.319 592.16 133.301C592.507 133.264 592.835 133.219 593.145 133.164V139.754C592.361 140.009 591.54 140.201 590.684 140.328C589.827 140.474 588.915 140.547 587.949 140.547C585.98 140.547 584.294 140.237 582.891 139.617C581.505 138.997 580.448 138.022 579.719 136.691C578.99 135.361 578.625 133.629 578.625 131.496V103.059ZM610.699 140.547C608.293 140.547 606.142 140.173 604.246 139.426C602.35 138.66 600.746 137.612 599.434 136.281C598.139 134.951 597.146 133.419 596.453 131.688C595.779 129.956 595.441 128.124 595.441 126.191V125.152C595.441 122.983 595.742 120.978 596.344 119.137C596.945 117.277 597.839 115.655 599.023 114.27C600.208 112.884 601.694 111.809 603.48 111.043C605.267 110.259 607.345 109.867 609.715 109.867C611.811 109.867 613.689 110.204 615.348 110.879C617.007 111.553 618.41 112.52 619.559 113.777C620.725 115.035 621.609 116.557 622.211 118.344C622.831 120.13 623.141 122.135 623.141 124.359V128.105H598.969V122.336H614.145V121.625C614.163 120.641 613.99 119.802 613.625 119.109C613.279 118.417 612.768 117.888 612.094 117.523C611.419 117.159 610.599 116.977 609.633 116.977C608.63 116.977 607.801 117.195 607.145 117.633C606.507 118.07 606.005 118.672 605.641 119.438C605.294 120.185 605.048 121.051 604.902 122.035C604.757 123.02 604.684 124.059 604.684 125.152V126.191C604.684 127.285 604.829 128.279 605.121 129.172C605.431 130.065 605.868 130.831 606.434 131.469C607.017 132.089 607.71 132.572 608.512 132.918C609.332 133.264 610.262 133.438 611.301 133.438C612.559 133.438 613.798 133.201 615.02 132.727C616.241 132.253 617.289 131.469 618.164 130.375L622.348 135.352C621.746 136.208 620.889 137.038 619.777 137.84C618.684 138.642 617.371 139.298 615.84 139.809C614.309 140.301 612.595 140.547 610.699 140.547ZM636.184 117.742V140H626.969V110.414H635.582L636.184 117.742ZM644.934 110.195L644.77 118.754C644.405 118.717 643.913 118.672 643.293 118.617C642.673 118.562 642.154 118.535 641.734 118.535C640.659 118.535 639.729 118.663 638.945 118.918C638.18 119.155 637.542 119.52 637.031 120.012C636.539 120.486 636.174 121.087 635.938 121.816C635.719 122.546 635.618 123.393 635.637 124.359L633.969 123.266C633.969 121.279 634.16 119.474 634.543 117.852C634.944 116.211 635.509 114.798 636.238 113.613C636.967 112.41 637.852 111.49 638.891 110.852C639.93 110.195 641.096 109.867 642.391 109.867C642.846 109.867 643.293 109.895 643.73 109.949C644.186 110.004 644.587 110.086 644.934 110.195ZM657.84 110.414V140H648.598V110.414H657.84ZM648.051 102.785C648.051 101.473 648.525 100.397 649.473 99.5586C650.421 98.7201 651.651 98.3008 653.164 98.3008C654.677 98.3008 655.908 98.7201 656.855 99.5586C657.803 100.397 658.277 101.473 658.277 102.785C658.277 104.098 657.803 105.173 656.855 106.012C655.908 106.85 654.677 107.27 653.164 107.27C651.651 107.27 650.421 106.85 649.473 106.012C648.525 105.173 648.051 104.098 648.051 102.785ZM662.379 125.508V124.934C662.379 122.764 662.689 120.768 663.309 118.945C663.928 117.104 664.84 115.509 666.043 114.16C667.246 112.811 668.732 111.763 670.5 111.016C672.268 110.25 674.31 109.867 676.625 109.867C678.958 109.867 681.009 110.25 682.777 111.016C684.564 111.763 686.059 112.811 687.262 114.16C688.465 115.509 689.376 117.104 689.996 118.945C690.616 120.768 690.926 122.764 690.926 124.934V125.508C690.926 127.659 690.616 129.655 689.996 131.496C689.376 133.319 688.465 134.914 687.262 136.281C686.059 137.63 684.573 138.678 682.805 139.426C681.036 140.173 678.995 140.547 676.68 140.547C674.365 140.547 672.314 140.173 670.527 139.426C668.741 138.678 667.246 137.63 666.043 136.281C664.84 134.914 663.928 133.319 663.309 131.496C662.689 129.655 662.379 127.659 662.379 125.508ZM671.594 124.934V125.508C671.594 126.62 671.676 127.659 671.84 128.625C672.004 129.591 672.277 130.439 672.66 131.168C673.043 131.879 673.562 132.435 674.219 132.836C674.875 133.237 675.695 133.438 676.68 133.438C677.646 133.438 678.448 133.237 679.086 132.836C679.742 132.435 680.262 131.879 680.645 131.168C681.027 130.439 681.301 129.591 681.465 128.625C681.629 127.659 681.711 126.62 681.711 125.508V124.934C681.711 123.858 681.629 122.846 681.465 121.898C681.301 120.932 681.027 120.085 680.645 119.355C680.262 118.608 679.742 118.025 679.086 117.605C678.43 117.186 677.609 116.977 676.625 116.977C675.659 116.977 674.848 117.186 674.191 117.605C673.553 118.025 673.043 118.608 672.66 119.355C672.277 120.085 672.004 120.932 671.84 121.898C671.676 122.846 671.594 123.858 671.594 124.934ZM704.324 117.742V140H695.109V110.414H703.723L704.324 117.742ZM713.074 110.195L712.91 118.754C712.546 118.717 712.053 118.672 711.434 118.617C710.814 118.562 710.294 118.535 709.875 118.535C708.799 118.535 707.87 118.663 707.086 118.918C706.32 119.155 705.682 119.52 705.172 120.012C704.68 120.486 704.315 121.087 704.078 121.816C703.859 122.546 703.759 123.393 703.777 124.359L702.109 123.266C702.109 121.279 702.301 119.474 702.684 117.852C703.085 116.211 703.65 114.798 704.379 113.613C705.108 112.41 705.992 111.49 707.031 110.852C708.07 110.195 709.237 109.867 710.531 109.867C710.987 109.867 711.434 109.895 711.871 109.949C712.327 110.004 712.728 110.086 713.074 110.195ZM743.562 140H734.73L734.785 132.617H743.562C745.385 132.617 746.926 132.18 748.184 131.305C749.46 130.43 750.426 129.126 751.082 127.395C751.757 125.645 752.094 123.493 752.094 120.941V119.219C752.094 117.305 751.902 115.628 751.52 114.188C751.155 112.729 750.608 111.517 749.879 110.551C749.15 109.566 748.238 108.828 747.145 108.336C746.069 107.844 744.829 107.598 743.426 107.598H734.566V100.188H743.426C746.124 100.188 748.594 100.652 750.836 101.582C753.096 102.493 755.047 103.806 756.688 105.52C758.346 107.215 759.622 109.229 760.516 111.562C761.427 113.878 761.883 116.448 761.883 119.273V120.941C761.883 123.749 761.427 126.319 760.516 128.652C759.622 130.986 758.355 133 756.715 134.695C755.074 136.391 753.133 137.703 750.891 138.633C748.667 139.544 746.224 140 743.562 140ZM740.227 100.188V140H730.629V100.188H740.227ZM780.777 140.547C778.371 140.547 776.22 140.173 774.324 139.426C772.428 138.66 770.824 137.612 769.512 136.281C768.217 134.951 767.224 133.419 766.531 131.688C765.857 129.956 765.52 128.124 765.52 126.191V125.152C765.52 122.983 765.82 120.978 766.422 119.137C767.023 117.277 767.917 115.655 769.102 114.27C770.286 112.884 771.772 111.809 773.559 111.043C775.345 110.259 777.423 109.867 779.793 109.867C781.889 109.867 783.767 110.204 785.426 110.879C787.085 111.553 788.488 112.52 789.637 113.777C790.803 115.035 791.688 116.557 792.289 118.344C792.909 120.13 793.219 122.135 793.219 124.359V128.105H769.047V122.336H784.223V121.625C784.241 120.641 784.068 119.802 783.703 119.109C783.357 118.417 782.846 117.888 782.172 117.523C781.497 117.159 780.677 116.977 779.711 116.977C778.708 116.977 777.879 117.195 777.223 117.633C776.585 118.07 776.083 118.672 775.719 119.438C775.372 120.185 775.126 121.051 774.98 122.035C774.835 123.02 774.762 124.059 774.762 125.152V126.191C774.762 127.285 774.908 128.279 775.199 129.172C775.509 130.065 775.947 130.831 776.512 131.469C777.095 132.089 777.788 132.572 778.59 132.918C779.41 133.264 780.34 133.438 781.379 133.438C782.637 133.438 783.876 133.201 785.098 132.727C786.319 132.253 787.367 131.469 788.242 130.375L792.426 135.352C791.824 136.208 790.967 137.038 789.855 137.84C788.762 138.642 787.449 139.298 785.918 139.809C784.387 140.301 782.673 140.547 780.777 140.547ZM812.469 131.688C812.469 131.177 812.296 130.74 811.949 130.375C811.621 129.992 811.038 129.646 810.199 129.336C809.361 129.008 808.185 128.68 806.672 128.352C805.232 128.042 803.874 127.632 802.598 127.121C801.34 126.611 800.237 125.991 799.289 125.262C798.341 124.533 797.594 123.667 797.047 122.664C796.518 121.661 796.254 120.513 796.254 119.219C796.254 117.961 796.518 116.776 797.047 115.664C797.594 114.534 798.387 113.54 799.426 112.684C800.483 111.809 801.768 111.125 803.281 110.633C804.794 110.122 806.517 109.867 808.449 109.867C811.111 109.867 813.408 110.277 815.34 111.098C817.272 111.9 818.758 113.03 819.797 114.488C820.854 115.928 821.383 117.596 821.383 119.492H812.168C812.168 118.745 812.04 118.107 811.785 117.578C811.548 117.049 811.156 116.648 810.609 116.375C810.062 116.083 809.333 115.938 808.422 115.938C807.784 115.938 807.201 116.056 806.672 116.293C806.161 116.53 805.751 116.858 805.441 117.277C805.132 117.697 804.977 118.189 804.977 118.754C804.977 119.155 805.068 119.52 805.25 119.848C805.451 120.158 805.751 120.449 806.152 120.723C806.553 120.978 807.064 121.215 807.684 121.434C808.303 121.634 809.051 121.816 809.926 121.98C811.913 122.345 813.772 122.865 815.504 123.539C817.236 124.214 818.639 125.171 819.715 126.41C820.809 127.65 821.355 129.318 821.355 131.414C821.355 132.727 821.055 133.939 820.453 135.051C819.852 136.145 818.986 137.111 817.855 137.949C816.725 138.77 815.367 139.408 813.781 139.863C812.195 140.319 810.409 140.547 808.422 140.547C805.596 140.547 803.208 140.046 801.258 139.043C799.307 138.022 797.831 136.746 796.828 135.215C795.844 133.665 795.352 132.098 795.352 130.512H803.938C803.974 131.423 804.193 132.171 804.594 132.754C805.013 133.337 805.569 133.766 806.262 134.039C806.954 134.312 807.757 134.449 808.668 134.449C809.507 134.449 810.199 134.331 810.746 134.094C811.311 133.857 811.74 133.538 812.031 133.137C812.323 132.717 812.469 132.234 812.469 131.688ZM835.41 110.414V140H826.168V110.414H835.41ZM825.621 102.785C825.621 101.473 826.095 100.397 827.043 99.5586C827.991 98.7201 829.221 98.3008 830.734 98.3008C832.247 98.3008 833.478 98.7201 834.426 99.5586C835.374 100.397 835.848 101.473 835.848 102.785C835.848 104.098 835.374 105.173 834.426 106.012C833.478 106.85 832.247 107.27 830.734 107.27C829.221 107.27 827.991 106.85 827.043 106.012C826.095 105.173 825.621 104.098 825.621 102.785ZM859.691 110.414H868.059V138.852C868.059 141.586 867.43 143.901 866.172 145.797C864.914 147.711 863.155 149.16 860.895 150.145C858.652 151.147 856.027 151.648 853.02 151.648C851.689 151.648 850.331 151.475 848.945 151.129C847.56 150.801 846.266 150.309 845.062 149.652C843.859 148.996 842.848 148.185 842.027 147.219L845.883 141.805C846.63 142.643 847.569 143.354 848.699 143.938C849.829 144.539 851.16 144.84 852.691 144.84C854.022 144.84 855.134 144.603 856.027 144.129C856.939 143.655 857.632 142.962 858.105 142.051C858.579 141.158 858.816 140.073 858.816 138.797V117.414L859.691 110.414ZM840.031 125.562V124.988C840.031 122.746 840.305 120.704 840.852 118.863C841.417 117.004 842.219 115.409 843.258 114.078C844.315 112.729 845.591 111.69 847.086 110.961C848.581 110.232 850.267 109.867 852.145 109.867C854.168 109.867 855.827 110.259 857.121 111.043C858.434 111.809 859.482 112.884 860.266 114.27C861.068 115.655 861.688 117.277 862.125 119.137C862.581 120.978 862.964 122.965 863.273 125.098V125.781C862.964 127.786 862.535 129.682 861.988 131.469C861.46 133.237 860.767 134.805 859.91 136.172C859.053 137.539 857.978 138.615 856.684 139.398C855.408 140.164 853.876 140.547 852.09 140.547C850.23 140.547 848.553 140.173 847.059 139.426C845.582 138.678 844.315 137.63 843.258 136.281C842.219 134.932 841.417 133.346 840.852 131.523C840.305 129.701 840.031 127.714 840.031 125.562ZM849.246 124.988V125.562C849.246 126.674 849.346 127.704 849.547 128.652C849.766 129.6 850.094 130.439 850.531 131.168C850.969 131.879 851.507 132.435 852.145 132.836C852.801 133.237 853.566 133.438 854.441 133.438C855.772 133.438 856.848 133.155 857.668 132.59C858.488 132.025 859.081 131.223 859.445 130.184C859.81 129.145 859.965 127.923 859.91 126.52V124.359C859.947 123.156 859.865 122.099 859.664 121.188C859.464 120.258 859.145 119.483 858.707 118.863C858.288 118.243 857.723 117.779 857.012 117.469C856.319 117.141 855.48 116.977 854.496 116.977C853.639 116.977 852.883 117.177 852.227 117.578C851.57 117.979 851.023 118.544 850.586 119.273C850.148 119.984 849.811 120.832 849.574 121.816C849.355 122.783 849.246 123.84 849.246 124.988ZM882.414 116.73V140H873.199V110.414H881.84L882.414 116.73ZM881.32 124.195L879.16 124.25C879.16 121.99 879.434 119.975 879.98 118.207C880.527 116.421 881.302 114.908 882.305 113.668C883.307 112.428 884.501 111.49 885.887 110.852C887.29 110.195 888.849 109.867 890.562 109.867C891.93 109.867 893.178 110.068 894.309 110.469C895.457 110.87 896.441 111.517 897.262 112.41C898.1 113.303 898.738 114.488 899.176 115.965C899.632 117.423 899.859 119.228 899.859 121.379V140H890.59V121.352C890.59 120.167 890.426 119.264 890.098 118.645C889.77 118.007 889.296 117.569 888.676 117.332C888.056 117.095 887.299 116.977 886.406 116.977C885.458 116.977 884.656 117.159 884 117.523C883.344 117.888 882.815 118.398 882.414 119.055C882.031 119.693 881.749 120.449 881.566 121.324C881.402 122.199 881.32 123.156 881.32 124.195Z" fill="black"/>
<rect x="93" y="178" width="918" height="77" rx="10" fill="#D3D3D3"/>
<rect x="111" y="196" width="148" height="41" rx="3" fill="#424242"/>
<rect x="111" y="196" width="148" height="41" rx="3" stroke="#424242" stroke-width="4"/>
<path d="M134.234 210.203H139.271C140.255 210.203 141.11 210.35 141.837 210.643C142.563 210.936 143.123 211.369 143.516 211.943C143.914 212.518 144.113 213.227 144.113 214.07C144.113 214.803 143.999 215.415 143.771 215.907C143.542 216.399 143.223 216.807 142.812 217.129C142.408 217.445 141.937 217.706 141.397 217.911L140.387 218.482H136.159L136.142 216.101H139.271C139.663 216.101 139.988 216.03 140.246 215.89C140.504 215.749 140.697 215.55 140.826 215.292C140.961 215.028 141.028 214.715 141.028 214.352C141.028 213.982 140.961 213.666 140.826 213.402C140.691 213.139 140.492 212.937 140.229 212.796C139.971 212.655 139.651 212.585 139.271 212.585H137.319V223H134.234V210.203ZM141.239 223L138.409 217.34L141.679 217.322L144.544 222.868V223H141.239ZM150.441 223.176C149.668 223.176 148.977 223.056 148.367 222.815C147.758 222.569 147.242 222.232 146.82 221.805C146.404 221.377 146.085 220.885 145.862 220.328C145.646 219.771 145.537 219.183 145.537 218.562V218.228C145.537 217.53 145.634 216.886 145.827 216.294C146.021 215.696 146.308 215.175 146.688 214.729C147.069 214.284 147.547 213.938 148.121 213.692C148.695 213.44 149.363 213.314 150.125 213.314C150.799 213.314 151.402 213.423 151.936 213.64C152.469 213.856 152.92 214.167 153.289 214.571C153.664 214.976 153.948 215.465 154.142 216.039C154.341 216.613 154.44 217.258 154.44 217.973V219.177H146.671V217.322H151.549V217.094C151.555 216.777 151.499 216.508 151.382 216.285C151.271 216.062 151.106 215.893 150.89 215.775C150.673 215.658 150.409 215.6 150.099 215.6C149.776 215.6 149.51 215.67 149.299 215.811C149.094 215.951 148.933 216.145 148.815 216.391C148.704 216.631 148.625 216.909 148.578 217.226C148.531 217.542 148.508 217.876 148.508 218.228V218.562C148.508 218.913 148.555 219.232 148.648 219.52C148.748 219.807 148.889 220.053 149.07 220.258C149.258 220.457 149.48 220.612 149.738 220.724C150.002 220.835 150.301 220.891 150.635 220.891C151.039 220.891 151.438 220.814 151.83 220.662C152.223 220.51 152.56 220.258 152.841 219.906L154.186 221.506C153.992 221.781 153.717 222.048 153.359 222.306C153.008 222.563 152.586 222.774 152.094 222.938C151.602 223.097 151.051 223.176 150.441 223.176ZM160.584 220.609V216.689C160.584 216.42 160.546 216.188 160.47 215.995C160.394 215.802 160.273 215.652 160.109 215.547C159.945 215.436 159.726 215.38 159.45 215.38C159.228 215.38 159.037 215.418 158.879 215.494C158.721 215.57 158.601 215.685 158.519 215.837C158.437 215.989 158.396 216.183 158.396 216.417H155.434C155.434 215.978 155.53 215.57 155.724 215.195C155.923 214.814 156.204 214.483 156.567 214.202C156.937 213.921 157.376 213.704 157.886 213.552C158.401 213.394 158.976 213.314 159.608 213.314C160.364 213.314 161.038 213.44 161.63 213.692C162.228 213.944 162.699 214.322 163.045 214.826C163.391 215.324 163.563 215.951 163.563 216.707V220.601C163.563 221.222 163.599 221.693 163.669 222.016C163.739 222.332 163.839 222.61 163.968 222.851V223H160.997C160.856 222.707 160.751 222.35 160.681 221.928C160.616 221.5 160.584 221.061 160.584 220.609ZM160.944 217.19L160.962 218.772H159.652C159.377 218.772 159.143 218.811 158.949 218.887C158.762 218.963 158.609 219.068 158.492 219.203C158.381 219.332 158.299 219.479 158.246 219.643C158.199 219.807 158.176 219.979 158.176 220.161C158.176 220.337 158.217 220.495 158.299 220.636C158.387 220.771 158.504 220.876 158.65 220.952C158.797 221.028 158.961 221.066 159.143 221.066C159.471 221.066 159.749 221.005 159.978 220.882C160.212 220.753 160.391 220.598 160.514 220.416C160.637 220.234 160.698 220.064 160.698 219.906L161.349 221.119C161.231 221.354 161.097 221.591 160.944 221.831C160.798 222.071 160.613 222.294 160.391 222.499C160.174 222.698 159.907 222.862 159.591 222.991C159.274 223.114 158.891 223.176 158.439 223.176C157.854 223.176 157.314 223.056 156.822 222.815C156.336 222.575 155.946 222.241 155.653 221.813C155.36 221.38 155.214 220.882 155.214 220.319C155.214 219.827 155.302 219.388 155.478 219.001C155.659 218.614 155.932 218.286 156.295 218.017C156.658 217.747 157.121 217.542 157.684 217.401C158.246 217.261 158.908 217.19 159.67 217.19H160.944ZM169.224 220.891C169.499 220.891 169.733 220.841 169.927 220.741C170.126 220.636 170.275 220.489 170.375 220.302C170.48 220.108 170.53 219.877 170.524 219.607H173.311C173.316 220.322 173.141 220.949 172.783 221.488C172.432 222.021 171.951 222.438 171.342 222.736C170.738 223.029 170.056 223.176 169.294 223.176C168.55 223.176 167.899 223.056 167.343 222.815C166.786 222.569 166.32 222.229 165.945 221.796C165.576 221.356 165.298 220.844 165.11 220.258C164.929 219.672 164.838 219.036 164.838 218.351V218.148C164.838 217.463 164.929 216.827 165.11 216.241C165.298 215.649 165.576 215.137 165.945 214.703C166.32 214.264 166.783 213.924 167.334 213.684C167.891 213.438 168.538 213.314 169.276 213.314C170.067 213.314 170.765 213.464 171.368 213.763C171.978 214.062 172.455 214.495 172.801 215.063C173.146 215.632 173.316 216.32 173.311 217.129H170.524C170.53 216.842 170.486 216.584 170.393 216.355C170.299 216.127 170.152 215.945 169.953 215.811C169.76 215.67 169.511 215.6 169.206 215.6C168.901 215.6 168.655 215.667 168.468 215.802C168.28 215.937 168.137 216.124 168.037 216.364C167.943 216.599 167.879 216.868 167.844 217.173C167.814 217.478 167.8 217.803 167.8 218.148V218.351C167.8 218.702 167.814 219.033 167.844 219.344C167.879 219.648 167.946 219.918 168.046 220.152C168.146 220.381 168.289 220.562 168.477 220.697C168.664 220.826 168.913 220.891 169.224 220.891ZM179.586 213.49V215.547H173.855V213.49H179.586ZM175.06 211.126H178.021V219.897C178.021 220.149 178.051 220.346 178.109 220.486C178.168 220.621 178.268 220.718 178.408 220.776C178.555 220.829 178.748 220.855 178.988 220.855C179.158 220.855 179.299 220.853 179.41 220.847C179.521 220.835 179.627 220.82 179.727 220.803V222.921C179.475 223.003 179.211 223.064 178.936 223.105C178.66 223.152 178.367 223.176 178.057 223.176C177.424 223.176 176.882 223.076 176.431 222.877C175.985 222.678 175.646 222.364 175.411 221.937C175.177 221.509 175.06 220.952 175.06 220.267V211.126ZM196.074 210.203V223H192.998L188.472 215.037V223H185.387V210.203H188.472L192.998 218.166V210.203H196.074ZM202.824 220.609V216.689C202.824 216.42 202.786 216.188 202.71 215.995C202.634 215.802 202.514 215.652 202.35 215.547C202.186 215.436 201.966 215.38 201.69 215.38C201.468 215.38 201.277 215.418 201.119 215.494C200.961 215.57 200.841 215.685 200.759 215.837C200.677 215.989 200.636 216.183 200.636 216.417H197.674C197.674 215.978 197.771 215.57 197.964 215.195C198.163 214.814 198.444 214.483 198.808 214.202C199.177 213.921 199.616 213.704 200.126 213.552C200.642 213.394 201.216 213.314 201.849 213.314C202.604 213.314 203.278 213.44 203.87 213.692C204.468 213.944 204.939 214.322 205.285 214.826C205.631 215.324 205.804 215.951 205.804 216.707V220.601C205.804 221.222 205.839 221.693 205.909 222.016C205.979 222.332 206.079 222.61 206.208 222.851V223H203.237C203.097 222.707 202.991 222.35 202.921 221.928C202.856 221.5 202.824 221.061 202.824 220.609ZM203.185 217.19L203.202 218.772H201.893C201.617 218.772 201.383 218.811 201.189 218.887C201.002 218.963 200.85 219.068 200.732 219.203C200.621 219.332 200.539 219.479 200.486 219.643C200.439 219.807 200.416 219.979 200.416 220.161C200.416 220.337 200.457 220.495 200.539 220.636C200.627 220.771 200.744 220.876 200.891 220.952C201.037 221.028 201.201 221.066 201.383 221.066C201.711 221.066 201.989 221.005 202.218 220.882C202.452 220.753 202.631 220.598 202.754 220.416C202.877 220.234 202.938 220.064 202.938 219.906L203.589 221.119C203.472 221.354 203.337 221.591 203.185 221.831C203.038 222.071 202.854 222.294 202.631 222.499C202.414 222.698 202.147 222.862 201.831 222.991C201.515 223.114 201.131 223.176 200.68 223.176C200.094 223.176 199.555 223.056 199.062 222.815C198.576 222.575 198.187 222.241 197.894 221.813C197.601 221.38 197.454 220.882 197.454 220.319C197.454 219.827 197.542 219.388 197.718 219.001C197.899 218.614 198.172 218.286 198.535 218.017C198.898 217.747 199.361 217.542 199.924 217.401C200.486 217.261 201.148 217.19 201.91 217.19H203.185ZM212.457 213.49V215.547H206.727V213.49H212.457ZM207.931 211.126H210.893V219.897C210.893 220.149 210.922 220.346 210.98 220.486C211.039 220.621 211.139 220.718 211.279 220.776C211.426 220.829 211.619 220.855 211.859 220.855C212.029 220.855 212.17 220.853 212.281 220.847C212.393 220.835 212.498 220.82 212.598 220.803V222.921C212.346 223.003 212.082 223.064 211.807 223.105C211.531 223.152 211.238 223.176 210.928 223.176C210.295 223.176 209.753 223.076 209.302 222.877C208.856 222.678 208.517 222.364 208.282 221.937C208.048 221.509 207.931 220.952 207.931 220.267V211.126ZM216.764 213.49V223H213.793V213.49H216.764ZM213.617 211.038C213.617 210.616 213.77 210.271 214.074 210.001C214.379 209.731 214.774 209.597 215.261 209.597C215.747 209.597 216.143 209.731 216.447 210.001C216.752 210.271 216.904 210.616 216.904 211.038C216.904 211.46 216.752 211.806 216.447 212.075C216.143 212.345 215.747 212.479 215.261 212.479C214.774 212.479 214.379 212.345 214.074 212.075C213.77 211.806 213.617 211.46 213.617 211.038ZM222.02 220.97L223.892 213.49H227.012L223.9 223H222.055L222.02 220.97ZM220.912 213.49L222.758 220.97L222.74 223H220.886L217.783 213.49H220.912ZM232.373 223.176C231.6 223.176 230.908 223.056 230.299 222.815C229.689 222.569 229.174 222.232 228.752 221.805C228.336 221.377 228.017 220.885 227.794 220.328C227.577 219.771 227.469 219.183 227.469 218.562V218.228C227.469 217.53 227.565 216.886 227.759 216.294C227.952 215.696 228.239 215.175 228.62 214.729C229.001 214.284 229.479 213.938 230.053 213.692C230.627 213.44 231.295 213.314 232.057 213.314C232.73 213.314 233.334 213.423 233.867 213.64C234.4 213.856 234.852 214.167 235.221 214.571C235.596 214.976 235.88 215.465 236.073 216.039C236.272 216.613 236.372 217.258 236.372 217.973V219.177H228.603V217.322H233.48V217.094C233.486 216.777 233.431 216.508 233.313 216.285C233.202 216.062 233.038 215.893 232.821 215.775C232.604 215.658 232.341 215.6 232.03 215.6C231.708 215.6 231.441 215.67 231.23 215.811C231.025 215.951 230.864 216.145 230.747 216.391C230.636 216.631 230.557 216.909 230.51 217.226C230.463 217.542 230.439 217.876 230.439 218.228V218.562C230.439 218.913 230.486 219.232 230.58 219.52C230.68 219.807 230.82 220.053 231.002 220.258C231.189 220.457 231.412 220.612 231.67 220.724C231.934 220.835 232.232 220.891 232.566 220.891C232.971 220.891 233.369 220.814 233.762 220.662C234.154 220.51 234.491 220.258 234.772 219.906L236.117 221.506C235.924 221.781 235.648 222.048 235.291 222.306C234.939 222.563 234.518 222.774 234.025 222.938C233.533 223.097 232.982 223.176 232.373 223.176Z" fill="white"/>
<rect x="279" y="196" width="130" height="41" rx="3" fill="#424242"/>
<rect x="279" y="196" width="130" height="41" rx="3" stroke="#424242" stroke-width="4"/>
<path d="M310.883 220.627V223H304.062V220.627H310.883ZM305.161 210.203V223H302.076V210.203H305.161ZM310.004 215.283V217.577H304.062V215.283H310.004ZM310.909 210.203V212.585H304.062V210.203H310.909ZM314.521 213.49L315.857 216.109L317.237 213.49H320.313L317.817 218.122L320.445 223H317.343L315.857 220.188L314.381 223H311.278L313.906 218.122L311.419 213.49H314.521ZM324.277 215.318V226.656H321.315V213.49H324.075L324.277 215.318ZM330.113 218.131V218.315C330.113 219.007 330.034 219.648 329.876 220.24C329.718 220.832 329.483 221.348 329.173 221.787C328.862 222.227 328.476 222.569 328.013 222.815C327.556 223.056 327.025 223.176 326.422 223.176C325.854 223.176 325.364 223.05 324.954 222.798C324.544 222.546 324.201 222.197 323.926 221.752C323.65 221.307 323.428 220.797 323.258 220.223C323.088 219.648 322.953 219.042 322.854 218.403V218.166C322.953 217.48 323.088 216.845 323.258 216.259C323.428 215.667 323.65 215.151 323.926 214.712C324.201 214.272 324.541 213.93 324.945 213.684C325.355 213.438 325.845 213.314 326.413 213.314C327.017 213.314 327.547 213.429 328.004 213.657C328.467 213.886 328.854 214.214 329.164 214.642C329.48 215.063 329.718 215.57 329.876 216.162C330.034 216.754 330.113 217.41 330.113 218.131ZM327.151 218.315V218.131C327.151 217.762 327.125 217.425 327.072 217.12C327.02 216.81 326.935 216.54 326.817 216.312C326.706 216.083 326.557 215.907 326.369 215.784C326.182 215.661 325.95 215.6 325.675 215.6C325.358 215.6 325.092 215.649 324.875 215.749C324.664 215.843 324.494 215.989 324.365 216.188C324.242 216.382 324.154 216.625 324.102 216.918C324.055 217.205 324.034 217.542 324.04 217.929V218.649C324.028 219.095 324.072 219.487 324.172 219.827C324.271 220.161 324.444 220.422 324.69 220.609C324.937 220.797 325.271 220.891 325.692 220.891C325.974 220.891 326.208 220.826 326.396 220.697C326.583 220.562 326.732 220.378 326.844 220.144C326.955 219.903 327.034 219.628 327.081 219.317C327.128 219.007 327.151 218.673 327.151 218.315ZM334.42 215.846V223H331.458V213.49H334.227L334.42 215.846ZM337.232 213.42L337.18 216.171C337.062 216.159 336.904 216.145 336.705 216.127C336.506 216.109 336.339 216.101 336.204 216.101C335.858 216.101 335.56 216.142 335.308 216.224C335.062 216.3 334.856 216.417 334.692 216.575C334.534 216.728 334.417 216.921 334.341 217.155C334.271 217.39 334.238 217.662 334.244 217.973L333.708 217.621C333.708 216.982 333.77 216.402 333.893 215.881C334.021 215.354 334.203 214.899 334.438 214.519C334.672 214.132 334.956 213.836 335.29 213.631C335.624 213.42 335.999 213.314 336.415 213.314C336.562 213.314 336.705 213.323 336.846 213.341C336.992 213.358 337.121 213.385 337.232 213.42ZM342.682 223.176C341.908 223.176 341.217 223.056 340.607 222.815C339.998 222.569 339.482 222.232 339.061 221.805C338.645 221.377 338.325 220.885 338.103 220.328C337.886 219.771 337.777 219.183 337.777 218.562V218.228C337.777 217.53 337.874 216.886 338.067 216.294C338.261 215.696 338.548 215.175 338.929 214.729C339.31 214.284 339.787 213.938 340.361 213.692C340.936 213.44 341.604 213.314 342.365 213.314C343.039 213.314 343.643 213.423 344.176 213.64C344.709 213.856 345.16 214.167 345.529 214.571C345.904 214.976 346.188 215.465 346.382 216.039C346.581 216.613 346.681 217.258 346.681 217.973V219.177H338.911V217.322H343.789V217.094C343.795 216.777 343.739 216.508 343.622 216.285C343.511 216.062 343.347 215.893 343.13 215.775C342.913 215.658 342.649 215.6 342.339 215.6C342.017 215.6 341.75 215.67 341.539 215.811C341.334 215.951 341.173 216.145 341.056 216.391C340.944 216.631 340.865 216.909 340.818 217.226C340.771 217.542 340.748 217.876 340.748 218.228V218.562C340.748 218.913 340.795 219.232 340.889 219.52C340.988 219.807 341.129 220.053 341.311 220.258C341.498 220.457 341.721 220.612 341.979 220.724C342.242 220.835 342.541 220.891 342.875 220.891C343.279 220.891 343.678 220.814 344.07 220.662C344.463 220.51 344.8 220.258 345.081 219.906L346.426 221.506C346.232 221.781 345.957 222.048 345.6 222.306C345.248 222.563 344.826 222.774 344.334 222.938C343.842 223.097 343.291 223.176 342.682 223.176ZM352.868 220.328C352.868 220.164 352.812 220.023 352.701 219.906C352.596 219.783 352.408 219.672 352.139 219.572C351.869 219.467 351.491 219.361 351.005 219.256C350.542 219.156 350.105 219.024 349.695 218.86C349.291 218.696 348.937 218.497 348.632 218.263C348.327 218.028 348.087 217.75 347.911 217.428C347.741 217.105 347.656 216.736 347.656 216.32C347.656 215.916 347.741 215.535 347.911 215.178C348.087 214.814 348.342 214.495 348.676 214.22C349.016 213.938 349.429 213.719 349.915 213.561C350.401 213.396 350.955 213.314 351.576 213.314C352.432 213.314 353.17 213.446 353.791 213.71C354.412 213.968 354.89 214.331 355.224 214.8C355.563 215.263 355.733 215.799 355.733 216.408H352.771C352.771 216.168 352.73 215.963 352.648 215.793C352.572 215.623 352.446 215.494 352.271 215.406C352.095 215.312 351.86 215.266 351.567 215.266C351.362 215.266 351.175 215.304 351.005 215.38C350.841 215.456 350.709 215.562 350.609 215.696C350.51 215.831 350.46 215.989 350.46 216.171C350.46 216.3 350.489 216.417 350.548 216.522C350.612 216.622 350.709 216.716 350.838 216.804C350.967 216.886 351.131 216.962 351.33 217.032C351.529 217.097 351.77 217.155 352.051 217.208C352.689 217.325 353.287 217.492 353.844 217.709C354.4 217.926 354.852 218.233 355.197 218.632C355.549 219.03 355.725 219.566 355.725 220.24C355.725 220.662 355.628 221.052 355.435 221.409C355.241 221.761 354.963 222.071 354.6 222.341C354.236 222.604 353.8 222.81 353.29 222.956C352.78 223.103 352.206 223.176 351.567 223.176C350.659 223.176 349.892 223.015 349.265 222.692C348.638 222.364 348.163 221.954 347.841 221.462C347.524 220.964 347.366 220.46 347.366 219.95H350.126C350.138 220.243 350.208 220.483 350.337 220.671C350.472 220.858 350.65 220.996 350.873 221.084C351.096 221.172 351.354 221.216 351.646 221.216C351.916 221.216 352.139 221.178 352.314 221.102C352.496 221.025 352.634 220.923 352.728 220.794C352.821 220.659 352.868 220.504 352.868 220.328ZM362.097 220.328C362.097 220.164 362.041 220.023 361.93 219.906C361.824 219.783 361.637 219.672 361.367 219.572C361.098 219.467 360.72 219.361 360.233 219.256C359.771 219.156 359.334 219.024 358.924 218.86C358.52 218.696 358.165 218.497 357.86 218.263C357.556 218.028 357.315 217.75 357.14 217.428C356.97 217.105 356.885 216.736 356.885 216.32C356.885 215.916 356.97 215.535 357.14 215.178C357.315 214.814 357.57 214.495 357.904 214.22C358.244 213.938 358.657 213.719 359.144 213.561C359.63 213.396 360.184 213.314 360.805 213.314C361.66 213.314 362.398 213.446 363.02 213.71C363.641 213.968 364.118 214.331 364.452 214.8C364.792 215.263 364.962 215.799 364.962 216.408H362C362 216.168 361.959 215.963 361.877 215.793C361.801 215.623 361.675 215.494 361.499 215.406C361.323 215.312 361.089 215.266 360.796 215.266C360.591 215.266 360.403 215.304 360.233 215.38C360.069 215.456 359.938 215.562 359.838 215.696C359.738 215.831 359.688 215.989 359.688 216.171C359.688 216.3 359.718 216.417 359.776 216.522C359.841 216.622 359.938 216.716 360.066 216.804C360.195 216.886 360.359 216.962 360.559 217.032C360.758 217.097 360.998 217.155 361.279 217.208C361.918 217.325 362.516 217.492 363.072 217.709C363.629 217.926 364.08 218.233 364.426 218.632C364.777 219.03 364.953 219.566 364.953 220.24C364.953 220.662 364.856 221.052 364.663 221.409C364.47 221.761 364.191 222.071 363.828 222.341C363.465 222.604 363.028 222.81 362.519 222.956C362.009 223.103 361.435 223.176 360.796 223.176C359.888 223.176 359.12 223.015 358.493 222.692C357.866 222.364 357.392 221.954 357.069 221.462C356.753 220.964 356.595 220.46 356.595 219.95H359.354C359.366 220.243 359.437 220.483 359.565 220.671C359.7 220.858 359.879 220.996 360.102 221.084C360.324 221.172 360.582 221.216 360.875 221.216C361.145 221.216 361.367 221.178 361.543 221.102C361.725 221.025 361.862 220.923 361.956 220.794C362.05 220.659 362.097 220.504 362.097 220.328ZM371.571 218.983V210.203H374.647V218.983C374.647 219.839 374.451 220.58 374.059 221.207C373.672 221.834 373.145 222.32 372.477 222.666C371.814 223.006 371.07 223.176 370.244 223.176C369.389 223.176 368.627 223.032 367.959 222.745C367.297 222.458 366.775 222.016 366.395 221.418C366.02 220.82 365.832 220.059 365.832 219.133H368.926C368.926 219.566 368.976 219.906 369.075 220.152C369.175 220.393 369.321 220.562 369.515 220.662C369.714 220.756 369.957 220.803 370.244 220.803C370.525 220.803 370.763 220.732 370.956 220.592C371.155 220.445 371.308 220.237 371.413 219.968C371.519 219.692 371.571 219.364 371.571 218.983ZM383.199 219.599C383.199 219.399 383.17 219.221 383.111 219.062C383.053 218.898 382.944 218.746 382.786 218.605C382.628 218.465 382.399 218.324 382.101 218.184C381.808 218.037 381.421 217.885 380.94 217.727C380.378 217.539 379.836 217.328 379.314 217.094C378.793 216.854 378.327 216.575 377.917 216.259C377.507 215.937 377.182 215.562 376.941 215.134C376.701 214.7 376.581 214.196 376.581 213.622C376.581 213.071 376.704 212.576 376.95 212.137C377.196 211.691 377.539 211.313 377.979 211.003C378.424 210.687 378.945 210.446 379.543 210.282C380.141 210.112 380.794 210.027 381.503 210.027C382.44 210.027 383.267 210.191 383.981 210.52C384.702 210.842 385.265 211.302 385.669 211.899C386.079 212.491 386.284 213.191 386.284 214H383.217C383.217 213.678 383.149 213.394 383.015 213.147C382.886 212.901 382.689 212.708 382.426 212.567C382.162 212.427 381.831 212.356 381.433 212.356C381.046 212.356 380.721 212.415 380.457 212.532C380.193 212.649 379.994 212.808 379.859 213.007C379.725 213.2 379.657 213.414 379.657 213.648C379.657 213.842 379.71 214.018 379.815 214.176C379.927 214.328 380.082 214.472 380.281 214.606C380.486 214.741 380.732 214.87 381.02 214.993C381.312 215.116 381.641 215.236 382.004 215.354C382.684 215.57 383.287 215.813 383.814 216.083C384.348 216.347 384.796 216.648 385.159 216.988C385.528 217.322 385.807 217.703 385.994 218.131C386.188 218.559 386.284 219.042 386.284 219.581C386.284 220.155 386.173 220.665 385.95 221.11C385.728 221.556 385.408 221.934 384.992 222.244C384.576 222.549 384.078 222.78 383.498 222.938C382.918 223.097 382.271 223.176 381.556 223.176C380.899 223.176 380.252 223.094 379.613 222.93C378.98 222.76 378.406 222.502 377.891 222.156C377.375 221.805 376.962 221.356 376.651 220.812C376.347 220.261 376.194 219.607 376.194 218.852H379.288C379.288 219.227 379.338 219.543 379.438 219.801C379.537 220.059 379.684 220.267 379.877 220.425C380.07 220.577 380.308 220.688 380.589 220.759C380.87 220.823 381.192 220.855 381.556 220.855C381.948 220.855 382.265 220.8 382.505 220.688C382.745 220.571 382.921 220.419 383.032 220.231C383.144 220.038 383.199 219.827 383.199 219.599Z" fill="white"/>
<rect x="429" y="196" width="109" height="41" rx="3" fill="#424242"/>
<rect x="429" y="196" width="109" height="41" rx="3" stroke="#424242" stroke-width="4"/>
<path d="M463.118 210.203V223H460.042L455.516 215.037V223H452.431V210.203H455.516L460.042 218.166V210.203H463.118ZM464.56 218.342V218.157C464.56 217.46 464.659 216.818 464.858 216.232C465.058 215.641 465.351 215.128 465.737 214.694C466.124 214.261 466.602 213.924 467.17 213.684C467.738 213.438 468.395 213.314 469.139 213.314C469.889 213.314 470.548 213.438 471.116 213.684C471.69 213.924 472.171 214.261 472.558 214.694C472.944 215.128 473.237 215.641 473.437 216.232C473.636 216.818 473.735 217.46 473.735 218.157V218.342C473.735 219.033 473.636 219.675 473.437 220.267C473.237 220.853 472.944 221.365 472.558 221.805C472.171 222.238 471.693 222.575 471.125 222.815C470.557 223.056 469.9 223.176 469.156 223.176C468.412 223.176 467.753 223.056 467.179 222.815C466.604 222.575 466.124 222.238 465.737 221.805C465.351 221.365 465.058 220.853 464.858 220.267C464.659 219.675 464.56 219.033 464.56 218.342ZM467.521 218.157V218.342C467.521 218.699 467.548 219.033 467.601 219.344C467.653 219.654 467.741 219.927 467.864 220.161C467.987 220.39 468.154 220.568 468.365 220.697C468.576 220.826 468.84 220.891 469.156 220.891C469.467 220.891 469.725 220.826 469.93 220.697C470.141 220.568 470.308 220.39 470.431 220.161C470.554 219.927 470.642 219.654 470.694 219.344C470.747 219.033 470.773 218.699 470.773 218.342V218.157C470.773 217.812 470.747 217.486 470.694 217.182C470.642 216.871 470.554 216.599 470.431 216.364C470.308 216.124 470.141 215.937 469.93 215.802C469.719 215.667 469.455 215.6 469.139 215.6C468.828 215.6 468.567 215.667 468.356 215.802C468.151 215.937 467.987 216.124 467.864 216.364C467.741 216.599 467.653 216.871 467.601 217.182C467.548 217.486 467.521 217.812 467.521 218.157ZM480.521 220.82V209.5H483.5V223H480.828L480.521 220.82ZM474.685 218.359V218.175C474.685 217.454 474.764 216.798 474.922 216.206C475.08 215.608 475.314 215.096 475.625 214.668C475.936 214.234 476.322 213.9 476.785 213.666C477.248 213.432 477.781 213.314 478.385 213.314C478.924 213.314 479.396 213.44 479.8 213.692C480.204 213.938 480.55 214.284 480.837 214.729C481.124 215.175 481.358 215.696 481.54 216.294C481.722 216.886 481.859 217.524 481.953 218.21V218.43C481.859 219.074 481.722 219.684 481.54 220.258C481.358 220.826 481.124 221.33 480.837 221.77C480.55 222.209 480.201 222.555 479.791 222.807C479.387 223.053 478.912 223.176 478.367 223.176C477.764 223.176 477.23 223.056 476.768 222.815C476.311 222.575 475.927 222.238 475.616 221.805C475.312 221.371 475.08 220.861 474.922 220.275C474.764 219.689 474.685 219.051 474.685 218.359ZM477.646 218.175V218.359C477.646 218.717 477.67 219.048 477.717 219.353C477.764 219.657 477.843 219.927 477.954 220.161C478.071 220.39 478.224 220.568 478.411 220.697C478.604 220.826 478.842 220.891 479.123 220.891C479.504 220.891 479.817 220.8 480.063 220.618C480.315 220.437 480.5 220.179 480.617 219.845C480.74 219.511 480.793 219.118 480.775 218.667V217.973C480.787 217.586 480.761 217.246 480.696 216.953C480.632 216.654 480.529 216.405 480.389 216.206C480.254 216.007 480.081 215.857 479.87 215.758C479.665 215.652 479.422 215.6 479.141 215.6C478.865 215.6 478.631 215.664 478.438 215.793C478.25 215.922 478.098 216.104 477.98 216.338C477.863 216.566 477.778 216.839 477.726 217.155C477.673 217.466 477.646 217.806 477.646 218.175ZM489.784 223.176C489.011 223.176 488.319 223.056 487.71 222.815C487.101 222.569 486.585 222.232 486.163 221.805C485.747 221.377 485.428 220.885 485.205 220.328C484.988 219.771 484.88 219.183 484.88 218.562V218.228C484.88 217.53 484.977 216.886 485.17 216.294C485.363 215.696 485.65 215.175 486.031 214.729C486.412 214.284 486.89 213.938 487.464 213.692C488.038 213.44 488.706 213.314 489.468 213.314C490.142 213.314 490.745 213.423 491.278 213.64C491.812 213.856 492.263 214.167 492.632 214.571C493.007 214.976 493.291 215.465 493.484 216.039C493.684 216.613 493.783 217.258 493.783 217.973V219.177H486.014V217.322H490.892V217.094C490.897 216.777 490.842 216.508 490.725 216.285C490.613 216.062 490.449 215.893 490.232 215.775C490.016 215.658 489.752 215.6 489.441 215.6C489.119 215.6 488.853 215.67 488.642 215.811C488.437 215.951 488.275 216.145 488.158 216.391C488.047 216.631 487.968 216.909 487.921 217.226C487.874 217.542 487.851 217.876 487.851 218.228V218.562C487.851 218.913 487.897 219.232 487.991 219.52C488.091 219.807 488.231 220.053 488.413 220.258C488.601 220.457 488.823 220.612 489.081 220.724C489.345 220.835 489.644 220.891 489.978 220.891C490.382 220.891 490.78 220.814 491.173 220.662C491.565 220.51 491.902 220.258 492.184 219.906L493.528 221.506C493.335 221.781 493.06 222.048 492.702 222.306C492.351 222.563 491.929 222.774 491.437 222.938C490.944 223.097 490.394 223.176 489.784 223.176ZM500.217 218.983V210.203H503.293V218.983C503.293 219.839 503.097 220.58 502.704 221.207C502.317 221.834 501.79 222.32 501.122 222.666C500.46 223.006 499.716 223.176 498.89 223.176C498.034 223.176 497.272 223.032 496.604 222.745C495.942 222.458 495.421 222.016 495.04 221.418C494.665 220.82 494.478 220.059 494.478 219.133H497.571C497.571 219.566 497.621 219.906 497.721 220.152C497.82 220.393 497.967 220.562 498.16 220.662C498.359 220.756 498.603 220.803 498.89 220.803C499.171 220.803 499.408 220.732 499.602 220.592C499.801 220.445 499.953 220.237 500.059 219.968C500.164 219.692 500.217 219.364 500.217 218.983ZM511.845 219.599C511.845 219.399 511.815 219.221 511.757 219.062C511.698 218.898 511.59 218.746 511.432 218.605C511.273 218.465 511.045 218.324 510.746 218.184C510.453 218.037 510.066 217.885 509.586 217.727C509.023 217.539 508.481 217.328 507.96 217.094C507.438 216.854 506.973 216.575 506.562 216.259C506.152 215.937 505.827 215.562 505.587 215.134C505.347 214.7 505.227 214.196 505.227 213.622C505.227 213.071 505.35 212.576 505.596 212.137C505.842 211.691 506.185 211.313 506.624 211.003C507.069 210.687 507.591 210.446 508.188 210.282C508.786 210.112 509.439 210.027 510.148 210.027C511.086 210.027 511.912 210.191 512.627 210.52C513.348 210.842 513.91 211.302 514.314 211.899C514.725 212.491 514.93 213.191 514.93 214H511.862C511.862 213.678 511.795 213.394 511.66 213.147C511.531 212.901 511.335 212.708 511.071 212.567C510.808 212.427 510.477 212.356 510.078 212.356C509.691 212.356 509.366 212.415 509.103 212.532C508.839 212.649 508.64 212.808 508.505 213.007C508.37 213.2 508.303 213.414 508.303 213.648C508.303 213.842 508.355 214.018 508.461 214.176C508.572 214.328 508.728 214.472 508.927 214.606C509.132 214.741 509.378 214.87 509.665 214.993C509.958 215.116 510.286 215.236 510.649 215.354C511.329 215.57 511.933 215.813 512.46 216.083C512.993 216.347 513.441 216.648 513.805 216.988C514.174 217.322 514.452 217.703 514.64 218.131C514.833 218.559 514.93 219.042 514.93 219.581C514.93 220.155 514.818 220.665 514.596 221.11C514.373 221.556 514.054 221.934 513.638 222.244C513.222 222.549 512.724 222.78 512.144 222.938C511.563 223.097 510.916 223.176 510.201 223.176C509.545 223.176 508.897 223.094 508.259 222.93C507.626 222.76 507.052 222.502 506.536 222.156C506.021 221.805 505.607 221.356 505.297 220.812C504.992 220.261 504.84 219.607 504.84 218.852H507.934C507.934 219.227 507.983 219.543 508.083 219.801C508.183 220.059 508.329 220.267 508.522 220.425C508.716 220.577 508.953 220.688 509.234 220.759C509.516 220.823 509.838 220.855 510.201 220.855C510.594 220.855 510.91 220.8 511.15 220.688C511.391 220.571 511.566 220.419 511.678 220.231C511.789 220.038 511.845 219.827 511.845 219.599Z" fill="white"/>
<rect x="558" y="196" width="129" height="41" rx="3" fill="#424242"/>
<rect x="558" y="196" width="129" height="41" rx="3" stroke="#424242" stroke-width="4"/>
<path d="M582.844 210.203H585.357L588.214 219.106L591.07 210.203H593.584L589.233 223H587.194L582.844 210.203ZM581.314 210.203H583.916L584.399 220.012V223H581.314V210.203ZM592.512 210.203H595.122V223H592.028V220.012L592.512 210.203ZM596.59 218.342V218.157C596.59 217.46 596.689 216.818 596.889 216.232C597.088 215.641 597.381 215.128 597.768 214.694C598.154 214.261 598.632 213.924 599.2 213.684C599.769 213.438 600.425 213.314 601.169 213.314C601.919 213.314 602.578 213.438 603.146 213.684C603.721 213.924 604.201 214.261 604.588 214.694C604.975 215.128 605.268 215.641 605.467 216.232C605.666 216.818 605.766 217.46 605.766 218.157V218.342C605.766 219.033 605.666 219.675 605.467 220.267C605.268 220.853 604.975 221.365 604.588 221.805C604.201 222.238 603.724 222.575 603.155 222.815C602.587 223.056 601.931 223.176 601.187 223.176C600.442 223.176 599.783 223.056 599.209 222.815C598.635 222.575 598.154 222.238 597.768 221.805C597.381 221.365 597.088 220.853 596.889 220.267C596.689 219.675 596.59 219.033 596.59 218.342ZM599.552 218.157V218.342C599.552 218.699 599.578 219.033 599.631 219.344C599.684 219.654 599.771 219.927 599.895 220.161C600.018 220.39 600.185 220.568 600.396 220.697C600.606 220.826 600.87 220.891 601.187 220.891C601.497 220.891 601.755 220.826 601.96 220.697C602.171 220.568 602.338 220.39 602.461 220.161C602.584 219.927 602.672 219.654 602.725 219.344C602.777 219.033 602.804 218.699 602.804 218.342V218.157C602.804 217.812 602.777 217.486 602.725 217.182C602.672 216.871 602.584 216.599 602.461 216.364C602.338 216.124 602.171 215.937 601.96 215.802C601.749 215.667 601.485 215.6 601.169 215.6C600.858 215.6 600.598 215.667 600.387 215.802C600.182 215.937 600.018 216.124 599.895 216.364C599.771 216.599 599.684 216.871 599.631 217.182C599.578 217.486 599.552 217.812 599.552 218.157ZM609.993 215.521V223H607.031V213.49H609.809L609.993 215.521ZM609.642 217.92L608.947 217.938C608.947 217.211 609.035 216.563 609.211 215.995C609.387 215.421 609.636 214.935 609.958 214.536C610.28 214.138 610.664 213.836 611.109 213.631C611.561 213.42 612.062 213.314 612.612 213.314C613.052 213.314 613.453 213.379 613.816 213.508C614.186 213.637 614.502 213.845 614.766 214.132C615.035 214.419 615.24 214.8 615.381 215.274C615.527 215.743 615.601 216.323 615.601 217.015V223H612.621V217.006C612.621 216.625 612.568 216.335 612.463 216.136C612.357 215.931 612.205 215.79 612.006 215.714C611.807 215.638 611.563 215.6 611.276 215.6C610.972 215.6 610.714 215.658 610.503 215.775C610.292 215.893 610.122 216.057 609.993 216.268C609.87 216.473 609.779 216.716 609.721 216.997C609.668 217.278 609.642 217.586 609.642 217.92ZM623.221 213.49H625.91V222.631C625.91 223.51 625.708 224.254 625.304 224.863C624.899 225.479 624.334 225.944 623.607 226.261C622.887 226.583 622.043 226.744 621.076 226.744C620.648 226.744 620.212 226.688 619.767 226.577C619.321 226.472 618.905 226.313 618.519 226.103C618.132 225.892 617.807 225.631 617.543 225.32L618.782 223.58C619.022 223.85 619.324 224.078 619.688 224.266C620.051 224.459 620.479 224.556 620.971 224.556C621.398 224.556 621.756 224.479 622.043 224.327C622.336 224.175 622.559 223.952 622.711 223.659C622.863 223.372 622.939 223.023 622.939 222.613V215.74L623.221 213.49ZM616.901 218.359V218.175C616.901 217.454 616.989 216.798 617.165 216.206C617.347 215.608 617.604 215.096 617.938 214.668C618.278 214.234 618.688 213.9 619.169 213.666C619.649 213.432 620.191 213.314 620.795 213.314C621.445 213.314 621.979 213.44 622.395 213.692C622.816 213.938 623.153 214.284 623.405 214.729C623.663 215.175 623.862 215.696 624.003 216.294C624.149 216.886 624.272 217.524 624.372 218.21V218.43C624.272 219.074 624.135 219.684 623.959 220.258C623.789 220.826 623.566 221.33 623.291 221.77C623.016 222.209 622.67 222.555 622.254 222.807C621.844 223.053 621.352 223.176 620.777 223.176C620.18 223.176 619.641 223.056 619.16 222.815C618.686 222.575 618.278 222.238 617.938 221.805C617.604 221.371 617.347 220.861 617.165 220.275C616.989 219.689 616.901 219.051 616.901 218.359ZM619.863 218.175V218.359C619.863 218.717 619.896 219.048 619.96 219.353C620.03 219.657 620.136 219.927 620.276 220.161C620.417 220.39 620.59 220.568 620.795 220.697C621.006 220.826 621.252 220.891 621.533 220.891C621.961 220.891 622.307 220.8 622.57 220.618C622.834 220.437 623.024 220.179 623.142 219.845C623.259 219.511 623.309 219.118 623.291 218.667V217.973C623.303 217.586 623.276 217.246 623.212 216.953C623.147 216.654 623.045 216.405 622.904 216.206C622.77 216.007 622.588 215.857 622.359 215.758C622.137 215.652 621.867 215.6 621.551 215.6C621.275 215.6 621.032 215.664 620.821 215.793C620.61 215.922 620.435 216.104 620.294 216.338C620.153 216.566 620.045 216.839 619.969 217.155C619.898 217.466 619.863 217.806 619.863 218.175ZM627.246 218.342V218.157C627.246 217.46 627.346 216.818 627.545 216.232C627.744 215.641 628.037 215.128 628.424 214.694C628.811 214.261 629.288 213.924 629.856 213.684C630.425 213.438 631.081 213.314 631.825 213.314C632.575 213.314 633.234 213.438 633.803 213.684C634.377 213.924 634.857 214.261 635.244 214.694C635.631 215.128 635.924 215.641 636.123 216.232C636.322 216.818 636.422 217.46 636.422 218.157V218.342C636.422 219.033 636.322 219.675 636.123 220.267C635.924 220.853 635.631 221.365 635.244 221.805C634.857 222.238 634.38 222.575 633.812 222.815C633.243 223.056 632.587 223.176 631.843 223.176C631.099 223.176 630.439 223.056 629.865 222.815C629.291 222.575 628.811 222.238 628.424 221.805C628.037 221.365 627.744 220.853 627.545 220.267C627.346 219.675 627.246 219.033 627.246 218.342ZM630.208 218.157V218.342C630.208 218.699 630.234 219.033 630.287 219.344C630.34 219.654 630.428 219.927 630.551 220.161C630.674 220.39 630.841 220.568 631.052 220.697C631.263 220.826 631.526 220.891 631.843 220.891C632.153 220.891 632.411 220.826 632.616 220.697C632.827 220.568 632.994 220.39 633.117 220.161C633.24 219.927 633.328 219.654 633.381 219.344C633.434 219.033 633.46 218.699 633.46 218.342V218.157C633.46 217.812 633.434 217.486 633.381 217.182C633.328 216.871 633.24 216.599 633.117 216.364C632.994 216.124 632.827 215.937 632.616 215.802C632.405 215.667 632.142 215.6 631.825 215.6C631.515 215.6 631.254 215.667 631.043 215.802C630.838 215.937 630.674 216.124 630.551 216.364C630.428 216.599 630.34 216.871 630.287 217.182C630.234 217.486 630.208 217.812 630.208 218.157ZM646.521 223H643.682L643.699 220.627H646.521C647.106 220.627 647.602 220.486 648.006 220.205C648.416 219.924 648.727 219.505 648.938 218.948C649.154 218.386 649.263 217.694 649.263 216.874V216.32C649.263 215.705 649.201 215.166 649.078 214.703C648.961 214.234 648.785 213.845 648.551 213.534C648.316 213.218 648.023 212.98 647.672 212.822C647.326 212.664 646.928 212.585 646.477 212.585H643.629V210.203H646.477C647.344 210.203 648.138 210.353 648.858 210.651C649.585 210.944 650.212 211.366 650.739 211.917C651.272 212.462 651.683 213.109 651.97 213.859C652.263 214.604 652.409 215.43 652.409 216.338V216.874C652.409 217.776 652.263 218.603 651.97 219.353C651.683 220.103 651.275 220.75 650.748 221.295C650.221 221.84 649.597 222.262 648.876 222.561C648.161 222.854 647.376 223 646.521 223ZM645.448 210.203V223H642.363V210.203H645.448ZM659.238 217.56H655.942L655.925 215.538H658.597C659.077 215.538 659.461 215.485 659.748 215.38C660.035 215.269 660.243 215.107 660.372 214.896C660.507 214.686 660.574 214.422 660.574 214.105C660.574 213.742 660.507 213.449 660.372 213.227C660.237 213.004 660.023 212.843 659.73 212.743C659.443 212.638 659.071 212.585 658.614 212.585H657.103V223H654.018V210.203H658.614C659.405 210.203 660.111 210.276 660.732 210.423C661.354 210.563 661.881 210.78 662.314 211.073C662.754 211.366 663.088 211.735 663.316 212.181C663.545 212.62 663.659 213.139 663.659 213.736C663.659 214.258 663.548 214.747 663.325 215.204C663.103 215.661 662.73 216.033 662.209 216.32C661.693 216.602 660.987 216.748 660.091 216.76L659.238 217.56ZM659.115 223H655.195L656.25 220.627H659.115C659.537 220.627 659.874 220.562 660.126 220.434C660.384 220.299 660.568 220.123 660.68 219.906C660.797 219.684 660.855 219.438 660.855 219.168C660.855 218.84 660.8 218.556 660.688 218.315C660.583 218.075 660.413 217.891 660.179 217.762C659.944 217.627 659.631 217.56 659.238 217.56H656.646L656.663 215.538H659.766L660.486 216.347C661.342 216.312 662.019 216.432 662.517 216.707C663.021 216.982 663.381 217.346 663.598 217.797C663.814 218.248 663.923 218.72 663.923 219.212C663.923 220.05 663.741 220.75 663.378 221.312C663.021 221.875 662.484 222.297 661.77 222.578C661.055 222.859 660.17 223 659.115 223Z" fill="white"/>
<rect x="707" y="196" width="112" height="41" rx="3" fill="#424242"/>
<rect x="707" y="196" width="112" height="41" rx="3" stroke="#424242" stroke-width="4"/>
<path d="M736.51 210.203V223H733.425V210.203H736.51ZM740.359 210.203V212.585H729.663V210.203H740.359ZM744.429 209.5V223H741.467V209.5H744.429ZM744.077 217.92L743.383 217.938C743.383 217.27 743.465 216.654 743.629 216.092C743.793 215.529 744.027 215.04 744.332 214.624C744.637 214.208 745.003 213.886 745.431 213.657C745.858 213.429 746.333 213.314 746.854 213.314C747.323 213.314 747.751 213.382 748.138 213.517C748.53 213.651 748.867 213.868 749.148 214.167C749.436 214.466 749.655 214.855 749.808 215.336C749.966 215.816 750.045 216.402 750.045 217.094V223H747.065V217.076C747.065 216.689 747.01 216.391 746.898 216.18C746.793 215.963 746.641 215.813 746.441 215.731C746.242 215.644 745.999 215.6 745.712 215.6C745.366 215.6 745.085 215.658 744.868 215.775C744.651 215.893 744.484 216.057 744.367 216.268C744.256 216.473 744.18 216.716 744.139 216.997C744.098 217.278 744.077 217.586 744.077 217.92ZM754.677 215.846V223H751.715V213.49H754.483L754.677 215.846ZM757.489 213.42L757.437 216.171C757.319 216.159 757.161 216.145 756.962 216.127C756.763 216.109 756.596 216.101 756.461 216.101C756.115 216.101 755.816 216.142 755.564 216.224C755.318 216.3 755.113 216.417 754.949 216.575C754.791 216.728 754.674 216.921 754.598 217.155C754.527 217.39 754.495 217.662 754.501 217.973L753.965 217.621C753.965 216.982 754.026 216.402 754.149 215.881C754.278 215.354 754.46 214.899 754.694 214.519C754.929 214.132 755.213 213.836 755.547 213.631C755.881 213.42 756.256 213.314 756.672 213.314C756.818 213.314 756.962 213.323 757.103 213.341C757.249 213.358 757.378 213.385 757.489 213.42ZM762.938 223.176C762.165 223.176 761.474 223.056 760.864 222.815C760.255 222.569 759.739 222.232 759.317 221.805C758.901 221.377 758.582 220.885 758.359 220.328C758.143 219.771 758.034 219.183 758.034 218.562V218.228C758.034 217.53 758.131 216.886 758.324 216.294C758.518 215.696 758.805 215.175 759.186 214.729C759.566 214.284 760.044 213.938 760.618 213.692C761.192 213.44 761.86 213.314 762.622 213.314C763.296 213.314 763.899 213.423 764.433 213.64C764.966 213.856 765.417 214.167 765.786 214.571C766.161 214.976 766.445 215.465 766.639 216.039C766.838 216.613 766.938 217.258 766.938 217.973V219.177H759.168V217.322H764.046V217.094C764.052 216.777 763.996 216.508 763.879 216.285C763.768 216.062 763.604 215.893 763.387 215.775C763.17 215.658 762.906 215.6 762.596 215.6C762.273 215.6 762.007 215.67 761.796 215.811C761.591 215.951 761.43 216.145 761.312 216.391C761.201 216.631 761.122 216.909 761.075 217.226C761.028 217.542 761.005 217.876 761.005 218.228V218.562C761.005 218.913 761.052 219.232 761.146 219.52C761.245 219.807 761.386 220.053 761.567 220.258C761.755 220.457 761.978 220.612 762.235 220.724C762.499 220.835 762.798 220.891 763.132 220.891C763.536 220.891 763.935 220.814 764.327 220.662C764.72 220.51 765.057 220.258 765.338 219.906L766.683 221.506C766.489 221.781 766.214 222.048 765.856 222.306C765.505 222.563 765.083 222.774 764.591 222.938C764.099 223.097 763.548 223.176 762.938 223.176ZM772.747 223.176C771.974 223.176 771.282 223.056 770.673 222.815C770.063 222.569 769.548 222.232 769.126 221.805C768.71 221.377 768.391 220.885 768.168 220.328C767.951 219.771 767.843 219.183 767.843 218.562V218.228C767.843 217.53 767.939 216.886 768.133 216.294C768.326 215.696 768.613 215.175 768.994 214.729C769.375 214.284 769.853 213.938 770.427 213.692C771.001 213.44 771.669 213.314 772.431 213.314C773.104 213.314 773.708 213.423 774.241 213.64C774.774 213.856 775.226 214.167 775.595 214.571C775.97 214.976 776.254 215.465 776.447 216.039C776.646 216.613 776.746 217.258 776.746 217.973V219.177H768.977V217.322H773.854V217.094C773.86 216.777 773.805 216.508 773.688 216.285C773.576 216.062 773.412 215.893 773.195 215.775C772.979 215.658 772.715 215.6 772.404 215.6C772.082 215.6 771.815 215.67 771.604 215.811C771.399 215.951 771.238 216.145 771.121 216.391C771.01 216.631 770.931 216.909 770.884 217.226C770.837 217.542 770.813 217.876 770.813 218.228V218.562C770.813 218.913 770.86 219.232 770.954 219.52C771.054 219.807 771.194 220.053 771.376 220.258C771.563 220.457 771.786 220.612 772.044 220.724C772.308 220.835 772.606 220.891 772.94 220.891C773.345 220.891 773.743 220.814 774.136 220.662C774.528 220.51 774.865 220.258 775.146 219.906L776.491 221.506C776.298 221.781 776.022 222.048 775.665 222.306C775.313 222.563 774.892 222.774 774.399 222.938C773.907 223.097 773.356 223.176 772.747 223.176ZM778.144 221.611C778.144 221.189 778.296 220.838 778.601 220.557C778.905 220.27 779.298 220.126 779.778 220.126C780.265 220.126 780.657 220.27 780.956 220.557C781.261 220.838 781.413 221.189 781.413 221.611C781.413 222.033 781.261 222.388 780.956 222.675C780.657 222.956 780.265 223.097 779.778 223.097C779.298 223.097 778.905 222.956 778.601 222.675C778.296 222.388 778.144 222.033 778.144 221.611ZM783.619 213.49H786.59V223.308C786.59 224.069 786.443 224.711 786.15 225.232C785.857 225.76 785.438 226.158 784.894 226.428C784.349 226.703 783.698 226.841 782.942 226.841C782.69 226.841 782.459 226.829 782.248 226.806C782.031 226.788 781.794 226.75 781.536 226.691V224.45C781.688 224.474 781.829 224.491 781.958 224.503C782.087 224.521 782.228 224.529 782.38 224.529C782.649 224.529 782.875 224.485 783.057 224.397C783.238 224.31 783.376 224.175 783.47 223.993C783.569 223.812 783.619 223.583 783.619 223.308V213.49ZM783.399 211.038C783.399 210.616 783.552 210.271 783.856 210.001C784.161 209.731 784.557 209.597 785.043 209.597C785.529 209.597 785.925 209.731 786.229 210.001C786.534 210.271 786.687 210.616 786.687 211.038C786.687 211.46 786.534 211.806 786.229 212.075C785.925 212.345 785.529 212.479 785.043 212.479C784.557 212.479 784.161 212.345 783.856 212.075C783.552 211.806 783.399 211.46 783.399 211.038ZM793.252 220.328C793.252 220.164 793.196 220.023 793.085 219.906C792.979 219.783 792.792 219.672 792.522 219.572C792.253 219.467 791.875 219.361 791.389 219.256C790.926 219.156 790.489 219.024 790.079 218.86C789.675 218.696 789.32 218.497 789.016 218.263C788.711 218.028 788.471 217.75 788.295 217.428C788.125 217.105 788.04 216.736 788.04 216.32C788.04 215.916 788.125 215.535 788.295 215.178C788.471 214.814 788.726 214.495 789.06 214.22C789.399 213.938 789.812 213.719 790.299 213.561C790.785 213.396 791.339 213.314 791.96 213.314C792.815 213.314 793.554 213.446 794.175 213.71C794.796 213.968 795.273 214.331 795.607 214.8C795.947 215.263 796.117 215.799 796.117 216.408H793.155C793.155 216.168 793.114 215.963 793.032 215.793C792.956 215.623 792.83 215.494 792.654 215.406C792.479 215.312 792.244 215.266 791.951 215.266C791.746 215.266 791.559 215.304 791.389 215.38C791.225 215.456 791.093 215.562 790.993 215.696C790.894 215.831 790.844 215.989 790.844 216.171C790.844 216.3 790.873 216.417 790.932 216.522C790.996 216.622 791.093 216.716 791.222 216.804C791.351 216.886 791.515 216.962 791.714 217.032C791.913 217.097 792.153 217.155 792.435 217.208C793.073 217.325 793.671 217.492 794.228 217.709C794.784 217.926 795.235 218.233 795.581 218.632C795.933 219.03 796.108 219.566 796.108 220.24C796.108 220.662 796.012 221.052 795.818 221.409C795.625 221.761 795.347 222.071 794.983 222.341C794.62 222.604 794.184 222.81 793.674 222.956C793.164 223.103 792.59 223.176 791.951 223.176C791.043 223.176 790.275 223.015 789.648 222.692C789.021 222.364 788.547 221.954 788.225 221.462C787.908 220.964 787.75 220.46 787.75 219.95H790.51C790.521 220.243 790.592 220.483 790.721 220.671C790.855 220.858 791.034 220.996 791.257 221.084C791.479 221.172 791.737 221.216 792.03 221.216C792.3 221.216 792.522 221.178 792.698 221.102C792.88 221.025 793.018 220.923 793.111 220.794C793.205 220.659 793.252 220.504 793.252 220.328Z" fill="white"/>
</svg>
